<svg xmlns="http://www.w3.org/2000/svg" xmlns:svg="http://www.w3.org/2000/svg" id="svg4301" width="64" height="64" version="1.1" viewBox="0 0 64 64"><metadata id="metadata4306"/><g id="layer1" transform="translate(0,-988.3622)"><g id="g4933" transform="matrix(0.70599655,0,0,0.70599655,-55.981594,229.77774)"><circle id="circle5" cx="124.62" cy="1119.813" r="45.326" style="fill:#444;fill-opacity:1"/><path style="fill:#fff" id="path7" d="m 93.800459,1113.7605 c -3.344,0 -6.053,2.709 -6.053,6.053 0,3.342 2.709,6.051 6.053,6.051 3.343,0 6.052,-2.709 6.052,-6.051 -10e-4,-3.344 -2.71,-6.053 -6.052,-6.053 z m 43.207001,27.504 c -2.895,1.672 -3.887,5.371 -2.215,8.264 1.67,2.895 5.369,3.887 8.265,2.215 2.895,-1.67 3.887,-5.369 2.215,-8.264 -1.671,-2.892 -5.372,-3.885 -8.265,-2.215 z m -30.062,-21.451 c 0,-5.98 2.971,-11.264 7.516,-14.463 l -4.424,-7.41 c -5.295,3.539 -9.233,8.947 -10.871001,15.281 1.910001,1.559 3.133001,3.932 3.133001,6.592 0,2.658 -1.223,5.031 -3.133001,6.59 1.636001,6.336 5.574001,11.744 10.871001,15.283 l 4.424,-7.412 c -4.546,-3.197 -7.516,-8.48 -7.516,-14.461 z m 17.675,-17.678 c 9.234,0 16.812,7.08 17.605,16.109 l 8.623,-0.127 c -0.425,-6.666 -3.337,-12.65 -7.812,-17.051 -2.301,0.869 -4.959,0.736 -7.256,-0.588 -2.301,-1.328 -3.744,-3.568 -4.139,-6 -2.236,-0.617 -4.59,-0.955 -7.023,-0.955 -4.184,0 -8.139,0.982 -11.65,2.721 l 4.205,7.535 c 2.264,-1.052 4.787,-1.644 7.447,-1.644 z m 0,35.354 c -2.66,0 -5.184,-0.592 -7.445,-1.645 l -4.204,7.535 c 3.512,1.74 7.467,2.723 11.649,2.723 2.435,0 4.787,-0.338 7.023,-0.957 0.395,-2.432 1.838,-4.67 4.139,-6 2.299,-1.326 4.955,-1.457 7.256,-0.588 4.476,-4.4 7.387,-10.385 7.812,-17.051 l -8.625,-0.127 c -0.794,9.032 -8.37,16.11 -17.605,16.11 z m 12.385,-39.131 c 2.896,1.672 6.595,0.682 8.265,-2.213 1.672,-2.895 0.682,-6.594 -2.213,-8.266 -2.896,-1.67 -6.595,-0.678 -8.267,2.217 -1.67,2.893 -0.677,6.592 2.215,8.262 z"/></g></g></svg>